<?xml version="1.0" standalone="no"?>
<svg version="1.0" xmlns="http://www.w3.org/2000/svg"
 viewBox="1800 1800 2400 2400"
 preserveAspectRatio="xMidYMid meet">
<g transform="translate(0.000000,5970.000000) scale(0.100000,-0.100000)"
fill="#FBF9F5" stroke="none">
<path d="M2870 4174 c-14 -2 -52 -9 -85 -15 -89 -16 -204 -64 -290 -120 -156
-101 -273 -254 -337 -439 -32 -93 -33 -98 -33 -265 1 -166 1 -172 34 -268 18
-53 53 -129 78 -169 l44 -72 -398 -398 -398 -398 93 -92 92 -93 399 399 399
399 46 -33 c128 -87 290 -133 471 -132 147 0 241 23 370 86 169 84 292 209
375 381 68 140 84 212 84 370 0 94 -5 149 -18 198 -51 192 -141 337 -290 465
-75 65 -235 146 -340 172 -77 20 -245 33 -296 24z m206 -239 c243 -46 448
-248 499 -490 89 -426 -278 -808 -705 -731 -130 23 -236 80 -336 180 -128 127
-188 271 -187 446 2 292 198 531 488 595 81 18 148 18 241 0z"/>
</g>
</svg>
