<?xml version="1.0" encoding="UTF-8"?>
<svg version="1.1" xmlns="http://www.w3.org/2000/svg" width="2372" height="358">
<path d="M0 0 C1.22589844 1.04414062 1.22589844 1.04414062 2.4765625 2.109375 C31.7869374 27.69923791 48.07200228 62.92026793 50.74609375 101.44921875 C52.52834243 134.3835697 43.06494621 167.6942387 23 194 C22.40058594 194.82113281 21.80117188 195.64226562 21.18359375 196.48828125 C2.07150614 221.70963229 -25.39239532 239.9956537 -56 248 C-56.7420166 248.20592773 -57.4840332 248.41185547 -58.24853516 248.62402344 C-70.32965245 251.86786108 -82.31613241 252.38763442 -94.75 252.4375 C-95.47895477 252.44376404 -96.20790955 252.45002808 -96.95895386 252.45648193 C-131.11478225 252.64208792 -165.74086247 240.30829223 -191 217 C-191.63550781 216.4136377 -192.27101562 215.82727539 -192.92578125 215.22314453 C-217.69773807 192.05401144 -235.10166689 162.17369937 -239 128 C-239.16435547 126.71029297 -239.16435547 126.71029297 -239.33203125 125.39453125 C-243.40590087 88.62106818 -233.17972413 51.08574029 -210.375 21.8671875 C-187.02562893 -6.3210335 -157.79855874 -24.39417751 -122 -32 C-120.95457031 -32.226875 -119.90914063 -32.45375 -118.83203125 -32.6875 C-77.10290735 -40.15208862 -31.9347101 -27.6840149 0 0 Z " fill="#FBF9F5" transform="translate(240,34)"/>
<path d="M0 0 C5.61077685 5.29857146 11.10021964 10.75482521 14.75 17.625 C15.32492188 16.90054688 15.89984375 16.17609375 16.4921875 15.4296875 C32.04434317 -3.88942629 52.00148346 -14.00146924 76.64819336 -16.85961914 C101.72105953 -19.36359123 128.08504976 -15.93060937 148.5625 -0.1875 C165.51152635 14.5431979 172.69248975 35.81384256 174.75 57.625 C175.08038941 63.50355638 175.00440452 69.39342297 174.97705078 75.27880859 C174.97648525 77.00498956 174.976806 78.731171 174.97793579 80.45735168 C174.97850476 85.09897979 174.96682509 89.74050249 174.95278788 94.3821063 C174.94020373 99.24941173 174.939104 104.11672012 174.93673706 108.98403931 C174.93054472 118.18112283 174.91416459 127.37815826 174.89403808 136.5752207 C174.8716088 147.05417841 174.86066805 157.53313852 174.85064721 168.01211429 C174.82979614 189.54977558 174.79314828 211.08737104 174.75 232.625 C160.23 232.625 145.71 232.625 130.75 232.625 C130.73018066 227.89744385 130.71036133 223.1698877 130.68994141 218.29907227 C130.62287847 202.63691125 130.54533813 186.97481484 130.46247292 171.31272984 C130.41251104 161.82170255 130.36606733 152.33068319 130.328125 142.83959961 C130.29501637 134.55993568 130.25508348 126.28033647 130.20720994 118.00074428 C130.18213096 113.62335374 130.16029661 109.24600507 130.14665604 104.8685627 C130.13366449 100.73418648 130.11143333 96.59995532 130.08261681 92.4656601 C130.07367255 90.96185072 130.06788232 89.45801809 130.06578636 87.95418358 C130.05286187 80.07762006 129.74024028 72.32435124 128.83944702 64.49839783 C128.72043547 63.45937092 128.72043547 63.45937092 128.59901965 62.39935356 C127.0873655 50.38312428 122.96249908 39.73535637 113.5625 31.8125 C99.82099451 21.95148609 81.00675146 21.27975093 64.75 23.625 C53.22726165 25.87135202 43.85987537 30.04960077 36.31640625 39.23828125 C27.70125073 52.36511422 27.45108073 68.08510378 27.43115234 83.22558594 C27.42183447 84.86280807 27.41166309 86.50002553 27.40071106 88.13723755 C27.37360635 92.54546742 27.35832016 96.9536657 27.34528303 101.3619566 C27.32956625 105.98240943 27.30280365 110.60279854 27.2772522 115.22320557 C27.23061485 123.95635933 27.1937983 132.68952528 27.16057932 141.42273927 C27.12225113 151.37208186 27.07286927 161.3213602 27.02259517 171.27064848 C26.91949925 191.72205728 26.83162552 212.17349346 26.75 232.625 C11.9 232.625 -2.95 232.625 -18.25 232.625 C-18.27187378 225.10114502 -18.27187378 225.10114502 -18.29418945 217.42529297 C-18.34458826 200.82911045 -18.41104423 184.23302068 -18.48571491 167.63693047 C-18.53058534 157.57746303 -18.57001999 147.51803031 -18.59643555 137.45849609 C-18.61948673 128.68552301 -18.65296368 119.91266059 -18.69870156 111.1397754 C-18.72253814 106.49921247 -18.74132935 101.85875848 -18.74761391 97.21813583 C-18.75370835 92.83994659 -18.77386336 88.46203575 -18.80427551 84.08395004 C-18.81298648 82.4869684 -18.81679293 80.88995027 -18.81500816 79.29294586 C-18.80306128 63.6541969 -20.42100178 48.35834914 -30.5625 35.75 C-45.60247884 23.85792371 -62.41957705 21.14692041 -81.25146484 23.33154297 C-92.49774331 24.98290221 -103.90091752 29.61512739 -111.01171875 38.7890625 C-117.74960473 48.77898808 -120.34542627 60.7559919 -120.40821838 72.68649292 C-120.41315636 73.37357271 -120.41809434 74.06065251 -120.42318195 74.7685529 C-120.43847064 77.05777646 -120.446894 79.34697216 -120.45532227 81.63623047 C-120.46490759 83.28241722 -120.47491805 84.92860154 -120.48532104 86.57478333 C-120.51230531 91.03501401 -120.53334987 95.49525521 -120.55332303 99.95552206 C-120.57522263 104.62003579 -120.60259185 109.28451736 -120.62937927 113.94900513 C-120.67925248 122.77798834 -120.72421121 131.60698946 -120.76740164 140.43600762 C-120.81681997 150.48918107 -120.87172103 160.54232225 -120.92708123 170.59546447 C-121.0408188 191.27194766 -121.14695196 211.94846058 -121.25 232.625 C-136.1 232.625 -150.95 232.625 -166.25 232.625 C-166.25 152.435 -166.25 72.245 -166.25 -10.375 C-151.73 -10.375 -137.21 -10.375 -122.25 -10.375 C-121.92 -1.795 -121.59 6.785 -121.25 15.625 C-120.13625 13.995625 -119.0225 12.36625 -117.875 10.6875 C-105.79969017 -5.7214576 -89.41911244 -13.11926879 -69.83984375 -16.83203125 C-46.27268893 -20.135838 -18.33644071 -16.02373648 0 0 Z " fill="#FBF9F5" transform="translate(2171.25,120.375)"/>
<path d="M0 0 C36.44531026 -0.65911731 69.13193406 10.58740764 95.671875 35.80859375 C119.72877073 60.51361504 129.8481647 94.62469405 129.734375 128.49609375 C129.73824219 129.67042969 129.74210937 130.84476563 129.74609375 132.0546875 C129.74416016 133.73884766 129.74416016 133.73884766 129.7421875 135.45703125 C129.74105957 136.4732959 129.73993164 137.48956055 129.73876953 138.53662109 C129.609375 141.12109375 129.609375 141.12109375 128.609375 144.12109375 C61.949375 144.12109375 -4.710625 144.12109375 -73.390625 144.12109375 C-69.94323228 158.61121474 -69.94323228 158.61121474 -64.578125 172.18359375 C-64.23974609 172.87638428 -63.90136719 173.5691748 -63.55273438 174.28295898 C-60.55740725 180.20232888 -56.91868594 185.26388103 -52.390625 190.12109375 C-51.45283203 191.17683594 -51.45283203 191.17683594 -50.49609375 192.25390625 C-37.21386566 206.48293267 -16.90339441 214.21307324 2.3046875 215.15234375 C22.14029178 214.96477302 40.59747924 208.08339489 55.609375 195.12109375 C56.28742188 194.5384375 56.96546875 193.95578125 57.6640625 193.35546875 C64.11607213 187.38045595 68.69001395 179.95981586 72.609375 172.12109375 C89.109375 172.12109375 105.609375 172.12109375 122.609375 172.12109375 C111.17583679 203.56332383 90.46634366 228.81136171 59.78466797 243.17871094 C44.28362814 249.89408846 27.50772751 254.33456959 10.609375 255.12109375 C9.09923828 255.20037109 9.09923828 255.20037109 7.55859375 255.28125 C-23.72835926 256.12684332 -57.34814511 245.46843021 -80.453125 223.93359375 C-82.45183167 222.01477551 -84.42155098 220.07064437 -86.390625 218.12109375 C-87.05320312 217.51910156 -87.71578125 216.91710937 -88.3984375 216.296875 C-108.59888584 197.64669362 -120.3708415 166.20444541 -121.51464844 139.19213867 C-122.49867619 98.46128635 -113.42899349 63.2419122 -84.703125 33.05859375 C-62.0490622 11.03284085 -31.09849115 1.1106604 0 0 Z M-53.390625 63.12109375 C-63.84384069 73.95475576 -72.390625 90.84896761 -72.390625 106.12109375 C-21.900625 106.12109375 28.589375 106.12109375 80.609375 106.12109375 C76.98217039 84.3578661 68.26521267 65.93740093 50.09765625 52.70703125 C17.15818574 31.71264345 -25.80754267 35.03509407 -53.390625 63.12109375 Z " fill="#FBF9F5" transform="translate(1608.390625,102.87890625)"/>
<path d="M0 0 C22.87217949 21.48028698 36.31207822 54.15800608 37.484375 85.39404297 C37.5588533 88.83161408 37.59358728 92.26822568 37.609375 95.70654297 C37.61650513 96.99757935 37.61650513 96.99757935 37.6237793 98.31469727 C37.621604 99.14138916 37.61942871 99.96808105 37.6171875 100.81982422 C37.61605957 101.55628174 37.61493164 102.29273926 37.61376953 103.05151367 C37.45899856 105.8534523 36.94571307 108.62601455 36.484375 111.39404297 C-30.175625 111.39404297 -96.835625 111.39404297 -165.515625 111.39404297 C-161.56161883 128.19856918 -157.55608084 140.76187935 -147.515625 154.39404297 C-147.04640625 155.04888672 -146.5771875 155.70373047 -146.09375 156.37841797 C-134.09672355 171.76284012 -114.76065012 178.99436309 -96.140625 181.92529297 C-76.23500456 184.07197753 -56.19227173 177.70766574 -40.390625 165.64404297 C-31.30384096 158.1673703 -31.30384096 158.1673703 -25.43994141 148.28271484 C-23.99762899 144.25540637 -22.79198438 142.19703968 -19.515625 139.39404297 C-11.51157673 137.26517638 -2.75981719 138.2783936 5.421875 138.64404297 C7.75051456 138.70426222 10.07930247 138.75901052 12.40820312 138.80810547 C18.10350395 138.9400891 23.79325563 139.14058281 29.484375 139.39404297 C28.75580036 144.39551431 27.28503216 148.42133342 24.984375 152.89404297 C24.62762695 153.59182861 24.27087891 154.28961426 23.90332031 155.00854492 C17.30737423 167.6766076 9.61956969 178.31550905 -0.515625 188.39404297 C-1.26585937 189.14427734 -2.01609375 189.89451172 -2.7890625 190.66748047 C-20.76109351 207.57054309 -46.19890562 218.3740633 -70.515625 221.39404297 C-71.37671875 221.50361328 -72.2378125 221.61318359 -73.125 221.72607422 C-108.29760702 225.53813423 -142.55197638 215.55239358 -170.10546875 193.54638672 C-189.10185875 178.02710485 -201.68209935 157.57791111 -208.828125 134.26904297 C-209.07071045 133.48255371 -209.3132959 132.69606445 -209.56323242 131.88574219 C-213.088611 119.76561775 -213.89351059 107.68804513 -213.828125 95.14404297 C-213.82539078 94.05337524 -213.82539078 94.05337524 -213.82260132 92.94067383 C-213.77699984 82.132975 -213.2645793 71.89817729 -210.515625 61.39404297 C-210.3599707 60.73726563 -210.20431641 60.08048828 -210.04394531 59.40380859 C-203.11219259 30.26554265 -186.12427434 3.78273231 -160.80859375 -12.62158203 C-159.17857422 -13.60384766 -159.17857422 -13.60384766 -157.515625 -14.60595703 C-156.94408691 -14.95207031 -156.37254883 -15.29818359 -155.78369141 -15.65478516 C-107.90447618 -44.18528049 -40.94158261 -37.4393197 0 0 Z M-143.515625 27.39404297 C-154.66139072 39.88267202 -164.515625 56.22637541 -164.515625 73.39404297 C-114.025625 73.39404297 -63.535625 73.39404297 -11.515625 73.39404297 C-14.998143 55.98145297 -19.1488618 43.70646834 -30.515625 30.39404297 C-31.05574219 29.74177734 -31.59585938 29.08951172 -32.15234375 28.41748047 C-40.58945168 19.10903394 -52.72805926 13.11891374 -64.515625 9.39404297 C-65.59457031 9.0440625 -65.59457031 9.0440625 -66.6953125 8.68701172 C-92.72446475 1.64799973 -124.17630262 8.55704065 -143.515625 27.39404297 Z " fill="#FBF9F5" transform="translate(694.515625,135.60595703125)"/>
<path d="M0 0 C18.54917834 17.43739794 23.54444739 42.06112823 24.6875 66.5625 C24.9496266 78.03993607 24.80111659 89.52177914 24.68835878 101.00042748 C24.64718278 105.42854824 24.61841795 109.85675107 24.58822632 114.28495789 C24.52946308 122.63542646 24.45985461 130.9857664 24.38615549 139.33611506 C24.30266339 148.85751955 24.23155713 158.37900465 24.16138959 167.9005152 C24.0170158 187.45463637 23.85578453 207.00856898 23.6875 226.5625 C9.4975 226.5625 -4.6925 226.5625 -19.3125 226.5625 C-19.6425 217.9825 -19.9725 209.4025 -20.3125 200.5625 C-21.694375 201.8825 -23.07625 203.2025 -24.5 204.5625 C-50.54155837 227.86476401 -84.7193061 232.16884556 -118.3125 230.5625 C-140.6703917 228.36564692 -160.52196495 218.28408075 -176.3125 202.5625 C-177.31603516 201.61117187 -177.31603516 201.61117187 -178.33984375 200.640625 C-191.54549116 187.10558502 -195.67292893 167.2468876 -195.4609375 149.015625 C-194.59060554 128.76895519 -187.88063147 112.11679967 -173.1875 98.0625 C-159.54566911 86.20003836 -142.70224416 80.3080384 -125.3125 76.5625 C-124.60270996 76.40797363 -123.89291992 76.25344727 -123.16162109 76.09423828 C-107.29436139 72.79459059 -90.9606769 72.47704099 -74.81939697 71.68682861 C-71.27057759 71.51082625 -67.72226222 71.3254512 -64.17388916 71.14070129 C-59.57447259 70.90206847 -54.97475612 70.66948095 -50.375 70.4375 C-49.49986755 70.39293671 -48.62473511 70.34837341 -47.7230835 70.30245972 C-38.58241195 69.84087163 -29.46852512 69.40026414 -20.3125 69.5625 C-23.10560952 45.4819566 -23.10560952 45.4819566 -37.3125 26.5625 C-57.19396329 14.01202974 -82.94809644 12.69087083 -105.54296875 17.58984375 C-119.9330946 21.30294358 -130.03058831 27.78164978 -138.3046875 40.0859375 C-140.61316832 44.08311247 -142.43780728 48.34444137 -144.3125 52.5625 C-158.5025 52.5625 -172.6925 52.5625 -187.3125 52.5625 C-187.3125 35.04815232 -179.13782451 19.56980113 -166.9921875 7.2109375 C-165.66574219 5.89996094 -165.66574219 5.89996094 -164.3125 4.5625 C-163.65507813 3.89476562 -162.99765625 3.22703125 -162.3203125 2.5390625 C-123.84987434 -33.95006554 -39.52585891 -34.23221709 0 0 Z M-49.54241848 105.58051777 C-53.51741168 105.74448219 -57.49246779 105.90452391 -61.46801758 106.05444336 C-104.11354501 105.87904054 -104.11354501 105.87904054 -140.37109375 124.6953125 C-148.21522183 134.05608072 -149.26588194 143.61928812 -148.51953125 155.51025391 C-147.34822333 167.1211199 -141.23557551 175.40436441 -132.625 182.8125 C-116.96307683 194.69477354 -96.57613054 196.36299202 -77.63671875 194.12890625 C-60.02186183 190.6661566 -42.94225857 179.14540789 -32.2578125 164.8046875 C-22.25315773 149.74107522 -19.11141401 133.88679059 -19.25 116.0625 C-19.25676758 114.39960938 -19.25676758 114.39960938 -19.26367188 112.703125 C-19.27536842 109.98952601 -19.29175914 107.27604239 -19.3125 104.5625 C-29.38824742 104.5625 -39.4752458 105.16495342 -49.54241848 105.58051777 Z " fill="#FBF9F5" transform="translate(1948.3125,126.4375)"/>
<path d="M0 0 C12.21325388 11.68224284 20.13695739 25.74631968 23.1875 42.4375 C23.1875 43.7575 23.1875 45.0775 23.1875 46.4375 C7.3475 46.4375 -8.4925 46.4375 -24.8125 46.4375 C-26.7925 42.4775 -28.7725 38.5175 -30.8125 34.4375 C-40.15992025 20.30035555 -53.68386489 12.86584978 -69.890625 9.015625 C-90.26817224 4.98370389 -112.87746115 6.31276156 -131.15234375 16.77734375 C-137.01030298 20.71537593 -140.77405272 26.09066618 -142.421875 32.98828125 C-143.67458554 40.84277632 -142.60589743 47.40433612 -138.8125 54.4375 C-125.2731205 71.01059939 -99.58258085 71.78995349 -79.93869019 74.38748169 C-6.61334455 84.16096632 -6.61334455 84.16096632 15.1875 108.4375 C26.07953438 122.86147021 28.8241608 141.49612575 26.7578125 159.09765625 C23.8929615 176.19834091 15.21121044 190.36769913 1.625 201.125 C-17.38026008 214.48920836 -37.91855491 220.63916534 -60.8125 223.4375 C-61.80636719 223.56898438 -62.80023437 223.70046875 -63.82421875 223.8359375 C-97.93439076 227.52083199 -138.0207293 223.25127922 -166 201.625 C-167.6231873 200.25133178 -169.2273245 198.85486376 -170.8125 197.4375 C-171.64523437 196.69886719 -172.47796875 195.96023438 -173.3359375 195.19921875 C-185.10726412 184.13417173 -194.72107335 168.70068335 -196.8125 152.4375 C-196.8125 150.7875 -196.8125 149.1375 -196.8125 147.4375 C-180.9725 147.4375 -165.1325 147.4375 -148.8125 147.4375 C-146.5025 151.7275 -144.1925 156.0175 -141.8125 160.4375 C-128.73822619 176.50017926 -113.4036238 184.11970516 -92.8125 186.4375 C-70.77062662 187.49521475 -45.22033653 187.16237133 -27.73828125 171.58984375 C-22.33602494 165.89312483 -20.17556659 160.24969921 -19.4375 152.5 C-19.73559637 146.00668348 -21.46881014 138.59341345 -26.0859375 133.80078125 C-43.9706068 119.67917585 -71.75513701 119.52378586 -93.46923828 116.66143799 C-157.54632443 108.20220077 -157.54632443 108.20220077 -177.87890625 84.1015625 C-185.2796745 73.90494847 -189.14574903 61.96433647 -189.8125 49.4375 C-189.86535156 48.47328125 -189.91820312 47.5090625 -189.97265625 46.515625 C-190.44966101 29.5093684 -186.09811773 13.78203852 -174.5 1.0625 C-156.60306073 -17.62222092 -134.0059489 -26.10001574 -108.8125 -29.5625 C-107.87535156 -29.69398437 -106.93820312 -29.82546875 -105.97265625 -29.9609375 C-68.17968856 -34.27015107 -28.52301368 -25.98763469 0 0 Z " fill="#FBF9F5" transform="translate(1171.8125,133.5625)"/>
<path d="M0 0 C6.99180169 -0.25416769 13.98240847 -0.42891409 20.9777832 -0.54931641 C23.35551461 -0.5995171 25.73293865 -0.66769616 28.10961914 -0.75439453 C31.5334854 -0.87613836 34.95326615 -0.93249384 38.37890625 -0.9765625 C39.43646622 -1.02817535 40.49402618 -1.07978821 41.58363342 -1.13296509 C46.09284441 -1.13636921 48.86192035 -1.11430403 52.17732239 2.13183594 C53.98659419 4.685013 55.51931122 7.24542942 57 10 C57.93297499 11.52961112 58.87081453 13.05628111 59.81640625 14.578125 C60.73457761 16.13376346 61.64984699 17.69111766 62.5625 19.25 C67.41537857 27.43609878 72.44516658 35.490901 77.57641602 43.50488281 C82.56333527 51.29698674 87.47235258 59.13558511 92.36083984 66.98974609 C95.56227295 72.12564074 98.78765398 77.24397322 102.05859375 82.3359375 C102.70957031 83.35042969 103.36054687 84.36492187 104.03125 85.41015625 C105.27860385 87.35020046 106.52975995 89.28780657 107.78515625 91.22265625 C108.33945312 92.08503906 108.89375 92.94742188 109.46484375 93.8359375 C109.955896 94.59438965 110.44694824 95.3528418 110.95288086 96.13427734 C112 98 112 98 112 100 C120.37245105 101.52308965 129.00021876 102.3883447 137 99 C143.5394201 92.80606337 147.20067408 84.11338097 151.02714539 76.08248901 C154.33800278 69.13906401 158.29816438 62.70131361 162.375 56.1875 C163.77839305 53.89403827 165.17876151 51.59904794 166.57421875 49.30078125 C166.92702408 48.72101028 167.27982941 48.14123932 167.64332581 47.54389954 C173.02769592 38.68315675 178.29855763 29.75416529 183.58154297 20.83276367 C184.15687019 19.861231 184.15687019 19.861231 184.74382019 18.87007141 C185.77792543 17.12317975 186.81123618 15.37581784 187.84448242 13.62841797 C188.36054047 12.79263718 188.36054047 12.79263718 188.88702393 11.93997192 C190.08482522 9.92216696 190.08482522 9.92216696 191.19549561 7.37423706 C194.58412128 0.50652786 194.58412128 0.50652786 198.42222595 -0.86654663 C201.43214529 -1.15990719 204.28424583 -1.12633816 207.3046875 -0.9765625 C208.38380402 -0.96241302 209.46292053 -0.94826355 210.57473755 -0.9336853 C214.01101871 -0.87783838 217.44070172 -0.75242776 220.875 -0.625 C223.20823894 -0.5748263 225.54158043 -0.52920121 227.875 -0.48828125 C233.58557266 -0.37821252 239.29231517 -0.21104833 245 0 C244.19109766 3.59483731 242.8461753 6.15923461 240.89453125 9.3046875 C240.24774414 10.35197021 239.60095703 11.39925293 238.93457031 12.47827148 C238.22742192 13.61064448 237.52005989 14.74288408 236.8125 15.875 C236.0852994 17.04676245 235.35841515 18.21872128 234.63183594 19.39086914 C228.37504474 29.46699947 222.00943603 39.47379183 215.61865234 49.46533203 C207.86344113 61.60931435 200.20553072 73.81611358 192.60180664 86.05541992 C189.56816454 90.93135162 186.50514915 95.77994325 183.34375 100.57421875 C182.49586914 101.87262695 182.49586914 101.87262695 181.63085938 103.19726562 C180.57155338 104.8147688 179.50053719 106.42468494 178.41601562 108.02539062 C177.94873047 108.74275391 177.48144531 109.46011719 177 110.19921875 C176.38125 111.12480591 176.38125 111.12480591 175.75 112.0690918 C174.69224815 114.79232076 175.1198019 116.22789073 176 119 C177.04599074 120.99872614 178.17608487 122.954368 179.359375 124.875 C179.69979324 125.43208649 180.04021149 125.98917297 180.39094543 126.56314087 C181.50354508 128.37988866 182.62661638 130.18990443 183.75 132 C184.53049834 133.26963135 185.31035864 134.53965514 186.08959961 135.81005859 C188.03094072 138.97092825 189.98085465 142.12639228 191.93450928 145.27966309 C193.44498234 147.71846665 194.95078731 150.16014535 196.45703125 152.6015625 C198.53468676 155.96497097 200.61730922 159.32524046 202.703125 162.68359375 C206.42243755 168.67494079 210.11805468 174.68079694 213.8125 180.6875 C214.48200684 181.77587158 215.15151367 182.86424316 215.84130859 183.9855957 C218.58174597 188.44101859 221.32161949 192.89678812 224.06152344 197.35253906 C225.42847237 199.57537336 226.79557769 201.7981115 228.1628418 204.02075195 C229.5007935 206.19603264 230.83820572 208.37164526 232.17504883 210.54760742 C235.39631631 215.78702805 238.63071017 221.01743265 241.89453125 226.23046875 C242.50337158 227.2052417 243.11221191 228.18001465 243.73950195 229.18432617 C244.8865723 231.01890699 246.03727575 232.85122277 247.19213867 234.6809082 C247.94781128 235.89073364 247.94781128 235.89073364 248.71875 237.125 C249.16154297 237.82882812 249.60433594 238.53265625 250.06054688 239.2578125 C251 241 251 241 251 243 C244.00819831 243.25416769 237.01759153 243.42891409 230.0222168 243.54931641 C227.64448539 243.5995171 225.26706135 243.66769616 222.89038086 243.75439453 C219.4665146 243.87613836 216.04673385 243.93249384 212.62109375 243.9765625 C211.56353378 244.02817535 210.50597382 244.07978821 209.41636658 244.13296509 C204.94845858 244.13633803 202.14925254 244.11459228 198.84973145 240.9145813 C197.02933115 238.35199981 195.48576581 235.76802603 194 233 C193.34209473 231.95408691 192.68418945 230.90817383 192.00634766 229.83056641 C191.48089355 228.92999512 190.95543945 228.02942383 190.4140625 227.1015625 C189.49669312 225.5393396 189.49669312 225.5393396 188.56079102 223.94555664 C187.92197998 222.84977295 187.28316895 221.75398926 186.625 220.625 C185.21225689 218.21850621 183.79580814 215.81420328 182.37890625 213.41015625 C182.01798386 212.79718185 181.65706146 212.18420746 181.28520203 211.55265808 C177.43411071 205.02159667 173.50533471 198.53846567 169.5625 192.0625 C169.04024841 191.20451309 169.04024841 191.20451309 168.50744629 190.32919312 C167.09150817 188.00334186 165.67528491 185.67766501 164.2583313 183.35243225 C161.63011944 179.03862704 159.01070437 174.71955257 156.39453125 170.3984375 C155.25468166 168.51680332 154.11475503 166.63521583 152.974823 164.75363159 C152.25628473 163.56711335 151.53810888 162.38037554 150.82034302 161.19338989 C149.17773169 158.47738221 147.52635418 155.76917063 145.8449707 153.0769043 C144 150 144 150 142.42651367 146.79223633 C139.48208386 141.0356059 139.48208386 141.0356059 134.015625 138.04907227 C130.47916973 137.69190864 127.11358947 137.6788256 123.5625 137.8125 C122.35400391 137.81443359 121.14550781 137.81636719 119.90039062 137.81835938 C116.92953442 137.83010189 113.96865834 137.89203142 111 138 C110.71350586 138.75418213 110.42701172 139.50836426 110.13183594 140.28540039 C109.18894571 142.54683189 108.23357755 144.40389048 106.890625 146.43359375 C106.47337158 147.07039062 106.05611816 147.7071875 105.6262207 148.36328125 C105.17206787 149.04777344 104.71791504 149.73226562 104.25 150.4375 C103.24784305 151.96688809 102.24658405 153.49686485 101.24609375 155.02734375 C100.71612793 155.83671387 100.18616211 156.64608398 99.64013672 157.47998047 C96.82976665 161.79802748 94.07271494 166.1497887 91.3125 170.5 C84.25758538 181.60463401 77.16737365 192.68646619 70.07177734 203.76513672 C66.52617735 209.30121966 62.98176869 214.83806469 59.4375 220.375 C58.79506348 221.37829346 58.15262695 222.38158691 57.49072266 223.4152832 C56.87374512 224.37909912 56.25676758 225.34291504 55.62109375 226.3359375 C54.99388428 227.26591553 54.3666748 228.19589355 53.72045898 229.15405273 C51.898681 231.95447802 51.898681 231.95447802 50.87524414 235.14477539 C49.33484196 238.88884607 48.30954931 240.60820138 45 243 C36.74076686 244.88774069 27.95576502 244.02429355 19.5625 243.6875 C17.18565921 243.63229992 14.80869632 243.58211387 12.43164062 243.53710938 C6.61842435 243.41612201 0.80977507 243.23231821 -5 243 C-3.81067968 239.87925584 -2.53169639 237.01754048 -0.78515625 234.171875 C-0.35227295 233.46385742 0.08061035 232.75583984 0.52661133 232.02636719 C0.99220459 231.27516602 1.45779785 230.52396484 1.9375 229.75 C2.42694092 228.9549707 2.91638184 228.15994141 3.4206543 227.34082031 C7.53947696 220.67947381 11.78076652 214.10151209 16.0546875 207.5390625 C24.3194535 194.8348721 32.37899917 181.99584751 40.46508789 169.17749023 C43.67106279 164.09752968 46.88713932 159.02412173 50.11303711 153.95678711 C51.28237249 152.11893604 52.44987107 150.27991494 53.61547852 148.43969727 C56.71100335 143.55943512 59.84406995 138.70903512 63.03515625 133.890625 C63.68822754 132.89393799 64.34129883 131.89725098 65.01416016 130.87036133 C66.27129885 128.95337642 67.5400673 127.04395469 68.82177734 125.14331055 C69.38461426 124.2800415 69.94745117 123.41677246 70.52734375 122.52734375 C71.02999756 121.77187256 71.53265137 121.01640137 72.05053711 120.23803711 C73.27361873 117.35503654 72.95113712 115.95136998 72 113 C71.05164394 111.02347346 71.05164394 111.02347346 69.8046875 109.1640625 C69.34416992 108.44202637 68.88365234 107.71999023 68.40917969 106.97607422 C67.90290039 106.20021973 67.39662109 105.42436523 66.875 104.625 C66.34293945 103.79629395 65.81087891 102.96758789 65.26269531 102.11376953 C63.517899 99.40294202 61.76062107 96.70057325 60 94 C59.4131543 93.09830078 58.82630859 92.19660156 58.22167969 91.26757812 C55.76854797 87.50031645 53.31268566 83.73487166 50.85107422 79.97314453 C46.1884985 72.84415948 41.58244828 65.68070926 37 58.5 C31.76978322 50.30643894 26.50373808 42.13802771 21.1875 34 C20.57100586 33.05584229 19.95451172 32.11168457 19.31933594 31.13891602 C16.99094474 27.57430748 14.66180238 24.01020083 12.32861328 20.44873047 C10.79954044 18.1135122 9.27437502 15.77578654 7.75 13.4375 C7.30809326 12.76525391 6.86618652 12.09300781 6.41088867 11.40039062 C6.00201416 10.77197266 5.59313965 10.14355469 5.171875 9.49609375 C4.8222168 8.96169678 4.47255859 8.4272998 4.11230469 7.87670898 C2.5974156 5.32074928 1.30786748 2.66652366 0 0 Z " fill="#FBF9F5" transform="translate(727,110)"/>
<path d="M0 0 C14.85 0 29.7 0 45 0 C45 25.08 45 50.16 45 76 C64.14 76 83.28 76 103 76 C103 88.54 103 101.08 103 114 C83.86 114 64.72 114 45 114 C45 168.45 45 222.9 45 279 C64.14 279 83.28 279 103 279 C103 292.2 103 305.4 103 319 C69.01 319 35.02 319 0 319 C0 213.73 0 108.46 0 0 Z " fill="#FBF9F5" transform="translate(1227,34)"/>
<path d="M0 0 C14.85 0 29.7 0 45 0 C45 112.2 45 224.4 45 340 C30.15 340 15.3 340 0 340 C0 227.8 0 115.6 0 0 Z " fill="#FBF9F5" transform="translate(406,13)"/>
<path d="M0 0 C37.29 0 74.58 0 113 0 C113 13.86 113 27.72 113 42 C90.23 42 67.46 42 44 42 C44 108.33 44 174.66 44 243 C29.48 243 14.96 243 0 243 C0 162.81 0 82.62 0 0 Z " fill="#FBF9F5" transform="translate(1367,110)"/>
<path d="M0 0 C95.37 0 190.74 0 289 0 C289 14.85 289 29.7 289 45 C193.63 45 98.26 45 0 45 C0 30.15 0 15.3 0 0 Z " fill="#FBF9F5" transform="translate(1,308)"/>
<path d="M0 0 C9.66220514 6.45987429 14.52162957 16.53436357 16.73828125 27.68359375 C18.04809071 39.66537346 14.93913804 50.05619003 7.73828125 59.68359375 C0.3639085 67.89171625 -9.15949748 73.13141091 -20.2421875 73.88671875 C-32.54667786 74.06656514 -42.95023358 71.29806964 -52.26953125 62.8671875 C-60.23006369 54.3380456 -64.0660604 44.3501077 -64.328125 32.7421875 C-63.83506964 21.28238574 -59.67385596 12.10389216 -51.7265625 3.87890625 C-36.74095238 -9.46802384 -16.8430819 -9.80331364 0 0 Z M-47.1640625 12.17578125 C-53.20939156 19.40315789 -55.87748809 27.29311127 -55.26171875 36.68359375 C-53.32264563 46.59258606 -48.75208727 54.74308967 -40.3125 60.46484375 C-32.2297309 65.26831796 -23.75563421 66.15443785 -14.51953125 64.0625 C-5.94054756 61.05584684 0.61425906 55.46552126 4.73828125 47.37109375 C8.0596998 40.02476175 9.08137277 32.85157632 7.01953125 24.91796875 C3.09673842 14.60481987 -2.56959199 8.15235344 -12.73046875 3.5703125 C-25.40783374 -0.87067801 -37.78563541 2.93459943 -47.1640625 12.17578125 Z " fill="#FBF9F5" transform="translate(2355.26171875,20.31640625)"/>
<path d="M0 0 C3.17625 -0.0825 6.3525 -0.165 9.625 -0.25 C10.6145166 -0.28641602 11.6040332 -0.32283203 12.62353516 -0.36035156 C18.42700217 -0.43308553 21.56531373 0.18361134 26 4 C28.58644464 7.4094043 28.36503115 10.8386449 28 15 C26.0684488 19.6142612 23.11931631 21.34867853 19 24 C19.86625 24.84304687 20.7325 25.68609375 21.625 26.5546875 C22.75026041 27.66119357 23.87524628 28.76797888 25 29.875 C25.57234375 30.43058594 26.1446875 30.98617187 26.734375 31.55859375 C28.19450782 33.00134404 29.60149298 34.4974374 31 36 C31 36.66 31 37.32 31 38 C26.80666656 38.71329899 23.17310153 38.91378218 19 38 C15.00480531 34.7635826 12.04713178 31.15272826 9 27 C8.67 30.63 8.34 34.26 8 38 C5.36 38 2.72 38 0 38 C0 25.46 0 12.92 0 0 Z M8 8 C8 10.31 8 12.62 8 15 C9.45792884 15.05399736 10.91642712 15.09279177 12.375 15.125 C13.59316406 15.15980469 13.59316406 15.15980469 14.8359375 15.1953125 C17.21342243 15.21370051 17.21342243 15.21370051 19 13 C18.83333333 10.91666667 18.83333333 10.91666667 18 9 C15.71294169 7.85647084 14.40735238 7.89665561 11.875 7.9375 C9.956875 7.9684375 9.956875 7.9684375 8 8 Z " fill="#FBF9F5" transform="translate(2318,35)"/>
</svg>
