<?xml version="1.0" standalone="no"?>
<!DOCTYPE svg PUBLIC "-//W3C//DTD SVG 20010904//EN"
 "http://www.w3.org/TR/2001/REC-SVG-20010904/DTD/svg10.dtd">
<svg version="1.0" xmlns="http://www.w3.org/2000/svg"
 width="1069.000000pt" height="325.000000pt" viewBox="0 0 1069.000000 325.000000"
 preserveAspectRatio="xMidYMid meet">

<g transform="translate(0.000000,325.000000) scale(0.100000,-0.100000)"
fill="#FBF9F5" stroke="none">
<path d="M10243 2930 c-17 -4 -52 -19 -77 -34 -155 -91 -175 -316 -38 -436
130 -115 330 -81 416 70 28 49 31 64 31 135 0 96 -21 142 -91 204 -68 60 -154
82 -241 61z m185 -82 c137 -91 127 -304 -18 -378 -84 -42 -171 -32 -241 28
-122 105 -100 287 46 366 49 26 161 18 213 -16z"/>
<path d="M10210 2665 l0 -125 30 0 c29 0 30 2 30 43 l0 42 36 -42 c31 -38 41
-43 77 -43 l41 0 -49 50 c-29 30 -43 50 -34 50 28 0 59 39 59 75 0 53 -36 75
-121 75 l-69 0 0 -125z m137 59 c8 -21 -9 -36 -46 -39 -28 -2 -31 0 -31 26 0
26 3 29 35 29 23 0 38 -6 42 -16z"/>
<path d="M430 1755 l0 -1165 150 0 150 0 0 1165 0 1165 -150 0 -150 0 0 -1165z"/>
<path d="M4560 1755 l0 -1165 150 0 150 0 0 1165 0 1165 -150 0 -150 0 0
-1165z"/>
<path d="M7636 2304 c-129 -29 -228 -92 -288 -186 l-33 -51 -3 102 -3 101
-144 0 -145 0 0 -830 0 -830 150 0 149 0 3 597 c4 683 2 666 88 754 66 68 136
92 270 92 209 0 308 -72 346 -252 11 -52 14 -183 14 -628 l0 -563 151 0 150 0
-4 618 c-4 677 -6 701 -66 829 -52 111 -157 194 -301 237 -79 24 -249 29 -334
10z"/>
<path d="M9086 2309 c-91 -12 -237 -62 -306 -104 -60 -37 -142 -118 -177 -175
-69 -114 -70 -309 -2 -442 51 -100 182 -186 344 -227 44 -11 168 -32 275 -46
414 -55 500 -98 500 -250 0 -104 -57 -169 -192 -217 -55 -19 -83 -22 -223 -23
-172 0 -222 10 -311 62 -52 30 -126 107 -153 162 l-21 41 -160 0 c-130 0 -160
-3 -160 -14 0 -36 44 -148 78 -202 144 -222 473 -338 841 -295 220 26 358 81
472 188 100 94 132 164 137 299 10 255 -98 381 -401 468 -49 14 -186 39 -305
56 -259 36 -335 58 -396 111 -53 46 -70 91 -64 164 11 129 145 204 365 205
162 0 267 -35 356 -119 30 -28 64 -73 78 -100 l24 -50 162 -1 163 0 -7 33
c-40 210 -242 394 -503 457 -100 24 -310 34 -414 19z"/>
<path d="M1631 2285 c-270 -49 -471 -196 -587 -430 -180 -364 -116 -801 157
-1061 169 -160 366 -238 604 -237 342 0 623 171 774 470 17 34 31 67 31 73 0
6 -58 10 -163 10 l-163 0 -40 -61 c-91 -143 -257 -229 -439 -229 -200 0 -378
105 -467 275 -38 73 -68 162 -68 202 l0 23 695 0 694 0 7 36 c10 52 -4 209
-26 303 -47 194 -149 357 -291 467 -63 48 -167 104 -242 128 -133 44 -332 57
-476 31z m279 -255 c158 -26 302 -132 370 -275 21 -44 41 -96 45 -115 4 -19 9
-43 11 -52 5 -17 -25 -18 -531 -18 l-535 0 6 28 c26 120 67 203 139 280 117
127 299 183 495 152z"/>
<path d="M5785 2290 c-271 -43 -490 -200 -605 -434 -66 -133 -91 -230 -97
-384 -11 -245 54 -450 196 -619 336 -399 995 -396 1327 6 49 59 109 160 133
224 l11 27 -169 0 -169 0 -13 -32 c-21 -52 -137 -162 -206 -197 -273 -137
-594 -36 -727 227 -29 59 -65 169 -66 205 0 4 315 7 700 7 l700 0 0 108 c-1
418 -239 744 -615 842 -92 24 -304 35 -400 20z m337 -280 c159 -49 281 -177
332 -349 30 -101 88 -91 -515 -91 l-532 0 7 40 c33 210 205 381 419 420 75 13
213 4 289 -20z"/>
<path d="M2671 2213 c13 -21 128 -200 256 -397 l231 -359 -25 -41 c-36 -56
-493 -775 -511 -803 l-14 -23 168 0 169 0 230 360 230 360 91 0 91 0 218 -360
218 -360 169 0 c93 0 167 3 165 8 -2 4 -122 199 -266 434 l-262 427 245 391
c136 216 246 394 246 396 0 2 -73 4 -163 4 l-162 0 -206 -342 -205 -343 -85
-3 -85 -3 -215 345 -214 345 -168 1 -169 0 23 -37z"/>
</g>
</svg>
